<svg width="48" height="48" viewBox="0 0 48 48" fill="none" xmlns="http://www.w3.org/2000/svg">
<mask id="path-1-inside-1" fill="white">
<path fill-rule="evenodd" clip-rule="evenodd" d="M43.9229 31.9334C44.5732 30.3889 42.8871 29.0452 41.2705 29.4865C35.9564 30.937 30.4609 29.8891 26.75 26.1782C21.9737 21.4019 21.609 13.669 25.3051 7.17182C26.0982 5.77767 25.293 3.91062 23.6945 4.04263C19.11 4.42126 14.6304 6.36433 11.1229 9.87186C3.25897 17.7358 3.25897 30.4858 11.1229 38.3497C18.9869 46.2136 31.7368 46.2136 39.6008 38.3497C41.5003 36.4501 42.9411 34.2654 43.9229 31.9334Z"/>
</mask>
<path fill-rule="evenodd" clip-rule="evenodd" d="M43.9229 31.9334C44.5732 30.3889 42.8871 29.0452 41.2705 29.4865C35.9564 30.937 30.4609 29.8891 26.75 26.1782C21.9737 21.4019 21.609 13.669 25.3051 7.17182C26.0982 5.77767 25.293 3.91062 23.6945 4.04263C19.11 4.42126 14.6304 6.36433 11.1229 9.87186C3.25897 17.7358 3.25897 30.4858 11.1229 38.3497C18.9869 46.2136 31.7368 46.2136 39.6008 38.3497C41.5003 36.4501 42.9411 34.2654 43.9229 31.9334Z" fill="black" fill-opacity="0.1"/>
<path d="M26.75 26.1782L23.9216 29.0067L23.9216 29.0066L26.75 26.1782ZM11.1229 9.87186L13.9513 12.7003L13.9513 12.7003L11.1229 9.87186ZM11.1229 38.3497L13.9513 35.5213L13.9513 35.5213L11.1229 38.3497ZM39.6008 38.3497L36.7723 35.5213L36.7723 35.5213L39.6008 38.3497ZM43.9229 31.9334L47.6095 33.4855L43.9229 31.9334ZM29.5784 23.3498C32.0848 25.8562 36.0091 26.7763 40.2173 25.6277L42.3238 33.3453C35.9038 35.0977 28.8369 33.922 23.9216 29.0067L29.5784 23.3498ZM28.7819 9.14967C25.7463 14.4858 26.377 20.1484 29.5784 23.3498L23.9216 29.0066C17.5704 22.6554 17.4717 12.8522 21.8283 5.19397L28.7819 9.14967ZM24.0237 8.02906C20.3476 8.33266 16.7644 9.88721 13.9513 12.7003L8.29449 7.04343C12.4965 2.84146 17.8724 0.509852 23.3652 0.0562042L24.0237 8.02906ZM13.9513 12.7003C7.6495 19.0021 7.6495 29.2194 13.9513 35.5213L8.29449 41.1781C-1.13155 31.7521 -1.13155 16.4695 8.29449 7.04343L13.9513 12.7003ZM13.9513 35.5213C20.2532 41.8231 30.4705 41.8231 36.7723 35.5213L42.4292 41.1781C33.0031 50.6042 17.7205 50.6042 8.29449 41.1781L13.9513 35.5213ZM36.7723 35.5213C38.2998 33.9938 39.4519 32.2445 40.2364 30.3812L47.6095 33.4855C46.4303 36.2863 44.7009 38.9064 42.4292 41.1781L36.7723 35.5213ZM21.8283 5.19397C21.5639 5.65864 21.5337 6.23472 21.7955 6.77613C21.9365 7.06775 22.1965 7.41455 22.6262 7.68066C23.0812 7.96239 23.5874 8.06509 24.0237 8.02906L23.3652 0.0562042C26.0351 -0.164293 28.0781 1.39162 28.9978 3.2937C29.8635 5.08417 29.8393 7.29085 28.7819 9.14967L21.8283 5.19397ZM40.2173 25.6277C42.3453 25.0468 44.5486 25.6163 46.0786 26.9531C47.7181 28.3855 48.7024 30.8898 47.6095 33.4855L40.2364 30.3812C40.0617 30.796 40.0007 31.3395 40.1516 31.8918C40.293 32.4091 40.5719 32.7651 40.815 32.9775C41.2604 33.3667 41.8124 33.4849 42.3238 33.3453L40.2173 25.6277Z" fill="black" mask="url(#path-1-inside-1)"/>
</svg>
